<svg width="49" height="420" viewBox="0 0 49 420" fill="none" xmlns="http://www.w3.org/2000/svg">
<rect x="0.5" y="186" width="48" height="48" rx="24" fill="#E9E9E9"/>
<path d="M23.5 215C27.1167 215 30.7796 216.626 32.5 219L30.5 220C29.0995 218.303 26.3118 217 23.5 217C20.6883 217 18.9005 218.303 17.5 220L15.5 219C17.2204 216.626 19.8833 215 23.5 215ZM23.5 200C24.8097 200 26.5739 200.053 27.5 201C28.4261 201.947 28.5 203.66 28.5 205V208C28.5 209.302 28.3801 211.06 27.5 212C26.6199 212.94 25.7714 212.944 24.5 213H23.5C22.1904 213 21.4261 212.947 20.5 212C19.5739 211.053 19.5 209.34 19.5 208V205C19.5001 203.698 19.6199 202.94 20.5 202C21.3801 201.06 22.2287 200.056 23.5 200ZM23.5 202C22.7443 202 22.0498 202.47 21.5 203C20.9501 203.53 21.5443 204.228 21.5 205V208C21.4993 208.789 20.963 209.434 21.5 210C22.0371 210.566 22.7291 210.977 23.5 211C24.2709 211.023 25.9314 210.533 26.5 210C27.0686 209.467 26.4556 208.788 26.5 208V205C26.5 204.196 27.0556 203.568 26.5 203C25.9444 202.432 24.2859 202 23.5 202Z" fill="black"/>
</svg>
